<?xml version="1.0" standalone="no"?><!DOCTYPE svg PUBLIC "-//W3C//DTD SVG 1.1//EN" "http://www.w3.org/Graphics/SVG/1.1/DTD/svg11.dtd"><svg t="1488098632256" class="icon" style="" viewBox="0 0 1024 1024" version="1.1" xmlns="http://www.w3.org/2000/svg" p-id="2725" xmlns:xlink="http://www.w3.org/1999/xlink" width="200" height="200"><defs><style type="text/css"></style></defs><path d="M1008.732452 1008.710782c-16.524348 16.524348-44.318368 15.522532-62.079894-2.238994L652.747762 712.568015c0 2.454912 0 4.823865 0 7.260357L256.385455 323.464019l7.260357 0L14.027662 73.845869C-3.733864 56.084343-4.737727 28.290323 11.787645 11.765975S56.106013-3.755534 73.866515 14.005992l261.537621 261.537621C456.615779 158.937872 591.773039 29.262464 606.834059 13.887288c19.86135-20.311605 45.914726 2.124384 45.914726 48.332798 0 26.143427 0 293.549709 0 530.667152l353.744673 353.744673C1024.254984 964.392414 1025.256801 992.186434 1008.732452 1008.710782zM119.724959 323.464019l16.97972 0 516.043083 516.043083c0 69.841671 0 117.578906 0 124.879172 0 41.943274-23.573905 73.15309-46.870494 48.613184-12.005428-12.630668-187.945533-181.010587-320.581366-308.713061l-165.570943 0c-32.791847 0-59.376319-26.584472-59.376319-59.376319l0-262.068717C60.34864 350.048491 86.933112 323.464019 119.724959 323.464019z" p-id="2726" fill="#867e7a"></path></svg>