<?xml version="1.0" standalone="no"?><!DOCTYPE svg PUBLIC "-//W3C//DTD SVG 1.1//EN" "http://www.w3.org/Graphics/SVG/1.1/DTD/svg11.dtd"><svg t="1488080750980" class="icon" style="" viewBox="0 0 1097 1024" version="1.1" xmlns="http://www.w3.org/2000/svg" p-id="8077" xmlns:xlink="http://www.w3.org/1999/xlink" width="214.2578125" height="200"><defs><style type="text/css"></style></defs><path d="M592.376709 6.010119C575.589824-1.865209 555.83242 0.7599 541.601562 12.572893L267.484853 240.750184 48.979019 239.852121 48.771773 239.852121C36.19888 239.852121 24.109559 244.826012 15.198003 253.737569 6.217365 262.649125 1.105309 274.738446 1.105309 287.449503L0.138164 737.793965C0.138164 750.505022 5.112056 762.663425 14.023612 771.644063 22.935168 780.624701 35.093571 785.667675 47.804628 785.667675L268.86649 785.667675 541.670644 1012.946902C550.374955 1020.200494 561.289885 1023.999995 572.204814 1023.999995 579.043915 1023.999995 585.952099 1022.480195 592.376709 1019.440594 609.163594 1011.634347 619.802196 994.847462 619.802196 976.333531L619.802196 49.186264C619.802196 30.672333 609.163594 13.885448 592.376709 6.010119L592.376709 6.010119 592.376709 6.010119ZM777.170609 244.34244C753.682786 233.220265 725.773726 243.375294 714.306142 266.724953 702.90764 290.212776 712.786342 318.605409 736.066919 330.34932 739.10652 331.938202 810.537134 369.035146 810.537134 474.730349 810.537134 587.610063 743.735003 694.065166 741.524384 695.308639 717.967479 707.121632 708.434187 735.790592 720.178098 759.278415 728.606082 776.0653 745.392967 785.667675 762.939752 785.667675 770.055181 785.667675 777.377855 784.078793 784.147874 780.693783 789.121766 778.137755 905.870062 648.678402 905.870062 474.730349 905.870062 306.861497 782.420829 246.829386 777.170609 244.34244L777.170609 244.34244 777.170609 244.34244ZM925.558384 104.382648C903.590362 90.220873 874.437829 96.645483 860.068808 118.613505 845.768868 140.512446 852.055315 170.07947 873.954256 184.517573 879.066311 187.902583 1001.20299 271.077109 1001.20299 478.184441 1001.20299 685.775346 884.040203 838.169867 879.411721 841.347631 857.443698 855.99298 851.571742 885.490922 866.148009 907.458944 875.335893 921.206229 890.464814 928.667067 905.870062 928.667067 914.919782 928.667067 924.176748 926.041957 932.259322 920.653574 938.96026 916.163255 1096.535918 739.10652 1096.535918 478.184441 1096.535918 216.778789 932.604731 108.803885 925.558384 104.382648L925.558384 104.382648 925.558384 104.382648Z" p-id="8078" fill="#867e7a"></path></svg>