<?xml version="1.0" standalone="no"?><!DOCTYPE svg PUBLIC "-//W3C//DTD SVG 1.1//EN" "http://www.w3.org/Graphics/SVG/1.1/DTD/svg11.dtd"><svg t="1488079504067" class="icon" style="" viewBox="0 0 1024 1024" version="1.1" xmlns="http://www.w3.org/2000/svg" p-id="4354" xmlns:xlink="http://www.w3.org/1999/xlink" width="200" height="200"><defs><style type="text/css"></style></defs><path d="M916.608108 155.588591l-251.489778 180.756807L665.11833 197.504236c0-60.255339-34.056654-57.633628-62.872956-41.915645l-445.342858 319.598992c-10.478655 10.478655-15.717983 24.231891-15.717983 37.984103 0 13.753235 5.239328 27.505447 15.717983 37.984103l445.342858 319.600015c26.197662 15.71696 62.872956 7.857968 62.872956-44.534286l0-138.842185 251.489778 180.75783c26.193569 18.3356 62.868863 10.476609 62.868863-44.534286L979.476971 197.504236C979.476971 139.870608 945.42441 139.870608 916.608108 155.588591z" p-id="4355" fill="#867e7a"></path><path d="M45.675272 146.026818 45.675272 877.972159 141.184533 877.972159 141.184533 513.171686 141.184533 146.026818Z" p-id="4356" fill="#867e7a"></path></svg>