<?xml version="1.0" standalone="no"?><!DOCTYPE svg PUBLIC "-//W3C//DTD SVG 1.1//EN" "http://www.w3.org/Graphics/SVG/1.1/DTD/svg11.dtd"><svg t="1488080837584" class="icon" style="" viewBox="0 0 1167 1024" version="1.1" xmlns="http://www.w3.org/2000/svg" p-id="8768" xmlns:xlink="http://www.w3.org/1999/xlink" width="227.9296875" height="200"><defs><style type="text/css"></style></defs><path d="M409.892636 110.687716 840.068574 110.687716 840.068574 28.400644C840.068574 2.120163 858.131823-7.716291 880.208065 6.541149L1078.248784 134.445335C1100.325026 148.701181 1100.109872 171.69222 1077.769074 185.532105L880.686182 307.627173C858.345381 321.467056 840.068574 311.289546 840.068574 285.009064L840.068574 203.125205 409.894229 203.125205C234.846142 203.125205 92.435895 345.537047 92.435895 520.583538 92.435895 549.527131 96.321391 578.190225 103.984008 605.774373 110.816295 630.368697 96.418608 655.844346 71.824284 662.676634 67.685388 663.827302 63.522585 664.375543 59.426718 664.375543 39.184851 664.375543 20.605236 650.972339 14.922022 630.516912 5.020225 594.876498 0 557.889391 0 520.583538-0.001594 411.096408 42.63526 308.162662 120.05351 230.744413 197.473354 153.32457 300.407097 110.687716 409.892636 110.687716Z" p-id="8769" fill="#867e7a"></path><path d="M741.662592 895.021161 311.486652 895.021161 311.486652 977.308231C311.486652 1003.588713 293.423403 1013.425166 271.347162 999.167727L73.306443 871.263542C51.230201 857.007696 51.445354 834.016657 73.786154 820.176771L270.869045 698.081704C293.209845 684.241818 311.486652 694.419331 311.486652 720.69981L311.486652 802.583671 741.660999 802.583671C916.709086 802.583671 1059.119332 660.17183 1059.119332 485.125336 1059.119332 456.181746 1055.233838 427.518649 1047.57122 399.934504 1040.738933 375.34018 1055.13662 349.864528 1079.730944 343.03224 1083.869838 341.881574 1088.032643 341.333333 1092.128509 341.333333 1112.370375 341.333333 1130.94999 354.736538 1136.633205 375.191964 1146.535003 410.832378 1151.555228 447.819486 1151.555228 485.125336 1151.556821 594.612469 1108.919967 697.546212 1031.501719 774.964463 954.081874 852.384307 851.148129 895.021161 741.662592 895.021161Z" p-id="8770" fill="#867e7a"></path></svg>